<?xml version="1.0" standalone="no"?>
<!DOCTYPE svg PUBLIC "-//W3C//DTD SVG 20010904//EN"
 "http://www.w3.org/TR/2001/REC-SVG-20010904/DTD/svg10.dtd">
<svg version="1.0" xmlns="http://www.w3.org/2000/svg"
 width="606.000000pt" height="401.000000pt" viewBox="0 0 606.000000 401.000000"
 preserveAspectRatio="xMidYMid meet">

<g transform="translate(0.000000,401.000000) scale(0.100000,-0.100000)"
fill="#000000" stroke="none">
<path d="M1094 3173 c-835 -1534 -1085 -1994 -1090 -2008 -5 -13 94 -15 845
-15 468 0 851 -2 851 -5 0 -4 -50 -86 -252 -408 l-48 -77 767 0 768 0 153 245
153 245 457 2 457 3 145 267 145 268 435 0 435 0 342 548 c300 480 345 556
360 616 49 199 -83 397 -289 436 -28 6 -129 10 -225 10 -159 0 -175 2 -169 17
5 12 294 546 323 596 2 4 -932 7 -2076 7 l-2079 0 -408 -747z m4406 651 c0 -7
-121 -234 -222 -416 l-60 -108 -1721 0 -1722 0 -38 -60 c-20 -33 -37 -62 -37
-65 0 -3 568 -5 1261 -5 965 0 1271 -3 1303 -12 54 -16 128 -90 144 -144 17
-58 15 -112 -7 -159 -10 -22 -177 -292 -370 -600 l-351 -560 330 -5 329 -5
-120 -222 -121 -223 -394 0 c-239 0 -394 4 -394 9 0 6 219 359 486 786 300
479 490 792 495 816 20 88 -42 194 -128 218 -26 7 -436 11 -1279 11 l-1240 0
-42 -65 -41 -65 634 -2 635 -3 -501 -800 c-275 -440 -516 -824 -535 -852 l-34
-53 -800 0 c-439 0 -801 3 -803 8 -2 4 44 95 103 202 131 240 844 1548 1104
2027 l191 353 1973 0 c1084 0 1972 -3 1972 -6z"/>
<path d="M1251 384 c-12 -15 -21 -30 -21 -35 0 -5 64 -10 142 -11 151 -3 167
-9 129 -47 -19 -19 -33 -21 -174 -21 l-152 0 -32 -52 c-18 -29 -42 -68 -54
-86 l-21 -32 45 0 c44 0 46 2 76 50 l31 50 120 0 c80 0 132 5 154 14 48 20
100 70 121 116 17 39 17 41 0 60 -17 18 -31 20 -181 20 l-163 0 -20 -26z"/>
<path d="M1644 308 c-37 -57 -82 -127 -101 -155 l-34 -53 129 0 128 0 43 33
42 32 -100 3 c-56 1 -101 5 -101 7 0 2 34 56 75 120 l75 115 -44 0 -45 0 -67
-102z"/>
<path d="M2159 347 c-41 -34 -126 -104 -188 -154 l-114 -93 51 0 c48 0 53 3
181 106 72 59 133 105 135 103 3 -2 1 -50 -2 -107 l-7 -102 51 0 52 0 6 53 c3
28 8 98 12 155 l7 102 -54 0 c-51 -1 -58 -4 -130 -63z"/>
<path d="M2462 255 l-101 -155 45 0 45 0 69 107 69 106 50 -106 50 -107 48 0
48 0 85 132 c124 192 119 178 68 178 l-43 0 -70 -107 -69 -108 -51 108 -50
107 -46 0 -46 0 -101 -155z"/>
<path d="M2930 264 c-52 -81 -96 -151 -98 -155 -2 -5 16 -9 40 -9 l43 0 68
107 69 107 40 -84 c22 -47 44 -95 49 -107 7 -19 16 -23 57 -23 l48 0 97 149
c53 82 97 152 97 155 0 3 -19 6 -42 6 l-43 -1 -69 -107 -69 -107 -50 108 -50
107 -46 0 -46 0 -95 -146z"/>
<path d="M3410 293 c-41 -64 -85 -134 -98 -155 l-23 -38 44 0 43 0 95 146 c52
81 96 151 97 155 2 5 -16 9 -40 9 l-43 -1 -75 -116z"/>
<path d="M3525 269 c-49 -78 -94 -148 -98 -155 -6 -11 1 -14 35 -14 l44 0 69
107 70 107 49 -107 50 -107 47 0 47 0 100 155 101 155 -45 0 -44 0 -70 -107
-69 -108 -51 108 -52 107 -46 0 -47 -1 -90 -140z"/>
<path d="M4137 396 c-60 -22 -106 -63 -158 -144 -52 -78 -59 -110 -33 -136 13
-13 43 -16 174 -16 l159 0 49 73 c84 125 84 117 4 117 -62 0 -72 -3 -111 -32
l-42 -33 40 -3 c44 -3 48 -9 28 -35 -10 -15 -27 -17 -107 -15 -79 3 -95 6 -98
20 -4 20 54 110 83 130 13 9 68 15 168 18 l148 5 20 33 21 32 -154 0 c-101 -1
-166 -5 -191 -14z"/>
</g>
</svg>
